<svg width="135" height="169" viewBox="0 0 135 169" fill="none" xmlns="http://www.w3.org/2000/svg">
<path d="M13 77C13 43.3106 40.3106 16 74 16C107.689 16 135 43.3106 135 77V159C135 164.523 130.523 169 125 169H23C17.4772 169 13 164.523 13 159V77Z" fill="#DCEE6A" fill-opacity="0.6"/>
<path d="M78.4305 20.1847C78.4305 22.6808 77.7288 24.5017 76.4921 24.5017C75.2554 24.5017 73.6179 21.3098 73.6179 18.8135C73.6179 16.3171 74.9546 15.6646 76.1913 15.6646C77.428 15.6646 78.4305 17.6884 78.4305 20.1847Z" fill="#1D2345"/>
<path d="M74.5344 19.7286C74.5344 19.7286 75.8331 19.9317 76.2153 22.3694C76.2153 22.3694 75.6803 17.7986 74.6872 17.6972" fill="#1D2345"/>
<path d="M98.2156 20.1847C98.2156 22.6808 98.9176 24.5017 100.154 24.5017C101.391 24.5017 103.028 21.3098 103.028 18.8135C103.028 16.3171 101.692 15.6646 100.455 15.6646C99.2181 15.6646 98.2156 17.6884 98.2156 20.1847Z" fill="#1D2345"/>
<path d="M102.112 19.7286C102.112 19.7286 100.813 19.9317 100.431 22.3694C100.431 22.3694 100.966 17.7986 101.959 17.6972" fill="#1D2345"/>
<path d="M95.1958 47.238H81.7559V30.4384H95.1958V47.238Z" fill="#1D2345"/>
<mask id="mask0_1_848" style="mask-type:luminance" maskUnits="userSpaceOnUse" x="81" y="30" width="15" height="18">
<path d="M95.1958 47.2463H81.7559V30.4467H95.1958V47.2463Z" fill="white"/>
</mask>
<g mask="url(#mask0_1_848)">
<path d="M101.641 17.1406C101.641 26.9565 96.3285 34.9136 89.7741 34.9136C83.2204 34.9136 77.9067 26.9565 77.9067 17.1406C77.9067 7.32465 83.2204 -0.632771 89.7741 -0.632771C96.3285 -0.632771 101.641 7.32465 101.641 17.1406Z" fill="#1D2345"/>
</g>
<path d="M100.871 17.7426C100.871 23.8776 98.7485 29.6016 95.3331 32.269C93.2838 33.8693 90.2594 35.5356 88.2557 35.5356C86.252 35.5356 83.3636 34.0054 81.3144 32.405C77.8993 29.7376 75.7749 23.8776 75.7749 17.7426C75.7749 7.92667 81.3928 3.7738 88.3232 3.7738C95.2536 3.7738 100.871 7.92667 100.871 17.7426Z" fill="#1D2345"/>
<path d="M84.1264 6.67586C84.1264 6.67586 84.8518 19.5859 100.455 16.7595C106.217 15.7153 110.322 -3.01681 95.1969 0.4205C95.1969 0.4205 84.4448 1.9176 81.5866 2.4621C68.8895 4.88043 75.1898 17.8416 75.1898 17.8416C75.1898 17.8416 79.5428 7.66858 84.1264 6.67586Z" fill="#1D2345"/>
<path d="M87.5751 18.659C87.5798 19.4876 87.5324 20.31 87.4547 21.1287C87.4143 21.5379 87.3741 21.9471 87.3194 22.3549C87.2695 22.763 87.2093 23.1696 87.1455 23.5762L87.1178 23.4708C87.2811 23.7064 87.4796 23.9398 87.6991 24.1361C87.9176 24.337 88.1736 24.5008 88.4807 24.5518C88.167 24.5901 87.8512 24.4544 87.5846 24.2874C87.3154 24.1116 87.0853 23.8972 86.8756 23.6466L86.8428 23.6076L86.8479 23.5412C86.8803 23.1309 86.9168 22.721 86.9631 22.3129C87.0051 21.9037 87.0616 21.496 87.117 21.0886C87.2323 20.2746 87.3774 19.4635 87.5751 18.659Z" fill="#A6B1C3"/>
<path d="M120.098 60.442C120.098 50.8205 106.055 43.0206 88.7319 43.0206C71.4093 43.0206 57.3665 50.8205 57.3665 60.442L71.5151 109.847L108.807 109.574L120.098 60.442Z" fill="#1D2345"/>
<path d="M72.3318 106.854L71.5152 109.848C71.5152 109.848 66.3434 125.092 65.7989 135.163C65.2547 145.235 64.9395 168.631 64.9395 168.631H116.825C116.825 168.631 115.34 140.879 114.523 132.986C113.707 125.092 108.807 109.576 108.807 109.576L72.3318 106.854Z" fill="#1D2345"/>
<path d="M78.5925 43.7004L81.8588 39.8897L95.7415 39.3455L99.0078 43.9725L93.5635 50.7778L78.5925 43.7004Z" fill="#1D2345"/>
<path d="M53.3811 28.1028C53.0802 30.52 52.6644 32.9132 52.1487 35.2892C51.6265 37.6616 51.0025 40.0176 50.152 42.2977C49.7246 43.4359 49.2329 44.5537 48.6286 45.6114C48.335 46.1453 47.9857 46.6475 47.6184 47.1336C47.2315 47.6048 46.8069 48.0505 46.3277 48.4265C45.3813 49.1913 44.3025 49.7795 43.4488 50.6406C43.0261 51.0702 42.684 51.5866 42.5068 52.1661C42.3251 52.7442 42.3025 53.3602 42.3521 53.9634C42.2952 53.3605 42.3094 52.7435 42.4849 52.1596C42.6556 51.5742 42.9951 51.0476 43.4156 50.6096C44.2664 49.7299 45.3408 49.1267 46.2701 48.3557C46.7417 47.9761 47.1516 47.5337 47.5287 47.0636C47.8857 46.5778 48.2253 46.0778 48.5097 45.5442C49.0954 44.4881 49.5699 43.3717 49.9806 42.2346C50.7982 39.9567 51.3901 37.6025 51.8807 35.232C52.365 32.861 52.7505 30.4642 53.0185 28.0634L53.3811 28.1028Z" fill="#AC54A2"/>
<path d="M53.1997 28.0831C53.1997 28.0831 52.0542 44.6982 47.3561 48.7084C42.658 52.719 40.8247 57.0732 47.9287 60.7399C55.0334 64.407 57.6684 63.4901 60.3041 60.3964C62.9394 57.3022 57.3249 27.7395 57.3249 27.7395L53.1997 28.0831Z" fill="#AC54A2"/>
<path d="M80.5754 28.0831C80.5754 28.0831 81.7213 44.6982 86.4193 48.7084C91.1174 52.719 92.9504 57.0732 85.8464 60.7399C78.742 64.407 76.1067 63.4901 73.471 60.3964C70.8357 57.3022 73.5961 27.7395 73.5961 27.7395L80.5754 28.0831Z" fill="#AC54A2"/>
<path d="M39.5734 106.055C33.3192 107.825 13.4863 83.7695 13.4863 83.7695L18.8292 77.047L34.7065 89.0562C34.7065 89.0562 41.6595 64.5268 44.0698 62.1876C48.9061 57.4939 56.6783 55.3523 66.9552 55.3523C75.7018 55.3523 81.9758 56.8494 87.0874 60.4232C90.9759 63.1413 91.7498 67.5224 93.194 71.0079C97.8294 82.1929 100.658 85.7998 100.658 85.7998L112.489 62.9914L119.812 67.0326C119.812 67.0326 110.385 102.703 98.8717 102.223C91.5379 101.918 83.7665 78.7359 83.7665 78.7359C83.7665 78.7359 81.7048 93.6978 81.7956 96.6555C81.8857 99.614 88.0378 114.433 88.0378 114.433C75.1657 117.902 62.337 118.259 49.5429 116.159C49.5429 116.159 53.6954 102.405 53.7457 97.2099C53.7968 92.0143 50.1538 79.249 50.1538 79.249C50.1538 79.249 47.6709 103.764 39.5734 106.055Z" fill="#8889FF"/>
<path d="M56.5182 34.0437C56.5182 35.9208 55.8165 37.2903 54.5798 37.2903C53.3431 37.2903 51.7056 34.8898 51.7056 33.0123C51.7056 31.1349 53.0422 30.6443 54.2789 30.6443C55.5156 30.6443 56.5182 32.1659 56.5182 34.0437Z" fill="#E88993"/>
<path d="M52.6221 33.6974C52.8562 33.7039 53.0845 33.7878 53.2953 33.8987C53.509 34.0095 53.6936 34.1715 53.8566 34.3509C54.0123 34.5373 54.1451 34.7433 54.2457 34.9636C54.3453 35.1846 54.4208 35.4136 54.4751 35.6474L54.1287 35.7105C54.0105 35.0694 53.8715 34.4231 53.6979 33.7947C53.6108 33.4804 53.5127 33.1689 53.3839 32.8731C53.253 32.5876 53.1038 32.2666 52.7749 32.1696C52.9459 32.162 53.1115 32.2593 53.2366 32.3764C53.3639 32.4953 53.4722 32.6321 53.5619 32.7779C53.7446 33.0686 53.8781 33.3826 53.9955 33.6988C54.2227 34.3363 54.3745 34.9888 54.4766 35.6565C54.4912 35.7524 54.4255 35.8422 54.3292 35.8571C54.2377 35.871 54.1524 35.8119 54.1312 35.7233L54.1305 35.7193L54.0561 35.3983C54.0211 35.2947 53.9948 35.1872 53.954 35.0865C53.8737 34.8841 53.7815 34.6857 53.6571 34.5063C53.4113 34.1507 53.0648 33.8403 52.6221 33.6974Z" fill="#1D2345"/>
<path d="M76.3032 34.0437C76.3032 35.9208 77.0053 37.2903 78.2416 37.2903C79.4783 37.2903 81.1158 34.8898 81.1158 33.0123C81.1158 31.1349 79.7792 30.6443 78.5425 30.6443C77.3058 30.6443 76.3032 32.1659 76.3032 34.0437Z" fill="#E88993"/>
<path d="M80.1993 33.6974C79.7566 33.8403 79.4101 34.1507 79.1643 34.5063C79.0399 34.6857 78.9477 34.8841 78.8674 35.0865C78.8266 35.1872 78.8003 35.2948 78.7653 35.3983L78.6909 35.7193L78.6902 35.7226C78.6683 35.8174 78.5738 35.8765 78.479 35.8546C78.3889 35.8338 78.331 35.7466 78.3448 35.6565C78.4469 34.9888 78.5986 34.3363 78.8259 33.6988C78.9433 33.3826 79.0764 33.0686 79.2595 32.778C79.3492 32.6321 79.4575 32.4953 79.5848 32.3764C79.7099 32.2593 79.8755 32.162 80.0465 32.1696C79.7175 32.2666 79.5684 32.5876 79.4375 32.8731C79.3087 33.1689 79.2106 33.4804 79.1234 33.7947C78.9498 34.4231 78.8109 35.0694 78.6927 35.7105L78.3463 35.6474C78.4006 35.4137 78.4761 35.1846 78.5757 34.9636C78.6763 34.7433 78.8091 34.5373 78.9648 34.3509C79.1278 34.1715 79.3127 34.0096 79.5261 33.8987C79.7369 33.7878 79.9652 33.7039 80.1993 33.6974Z" fill="#1D2345"/>
<path d="M55.0335 37.7665C55.0335 38.2413 54.6484 38.6257 54.1739 38.6257C53.6991 38.6257 53.3147 38.2413 53.3147 37.7665C53.3147 37.2917 53.6991 36.9069 54.1739 36.9069C54.6484 36.9069 55.0335 37.2917 55.0335 37.7665Z" fill="white"/>
<path d="M79.4974 37.7665C79.4974 38.2413 79.1126 38.6257 78.6378 38.6257C78.1637 38.6257 77.7786 38.2413 77.7786 37.7665C77.7786 37.2917 78.1637 36.9069 78.6378 36.9069C79.1126 36.9069 79.4974 37.2917 79.4974 37.7665Z" fill="white"/>
<path d="M66.5635 61.1189C62.8523 61.1189 59.8435 58.1101 59.8435 54.3989V44.3193H73.2835V54.3989C73.2835 58.1101 70.2747 61.1189 66.5635 61.1189Z" fill="#F59FA5"/>
<mask id="mask1_1_848" style="mask-type:luminance" maskUnits="userSpaceOnUse" x="59" y="44" width="15" height="18">
<path d="M73.2835 61.1265H59.8435V44.3269H73.2835V61.1265Z" fill="white"/>
</mask>
<g mask="url(#mask1_1_848)">
<path d="M79.7291 31.0207C79.7291 40.8366 74.4162 48.7937 67.8618 48.7937C61.3081 48.7937 55.9944 40.8366 55.9944 31.0207C55.9944 21.2048 61.3081 13.2474 67.8618 13.2474C74.4162 13.2474 79.7291 21.2048 79.7291 31.0207Z" fill="#1D2345"/>
</g>
<path d="M78.9591 31.6225C78.9591 41.4385 71.7533 47.5986 66.4108 47.5986C61.0683 47.5986 53.8625 41.4385 53.8625 31.6225C53.8625 21.807 59.4804 17.6534 66.4108 17.6534C73.3412 17.6534 78.9591 21.807 78.9591 31.6225Z" fill="#F59FA5"/>
<path d="M62.2142 20.5587C62.2142 20.5587 62.9396 33.4688 78.5426 30.6423C84.3053 29.5982 77.9507 11.6972 62.8251 15.1349C62.8251 15.1349 57.3717 10.1443 52.2834 13.9893C41.9704 21.7812 53.8111 30.7189 53.8111 30.7189C53.8111 30.7189 57.6307 21.5518 62.2142 20.5587Z" fill="#AC54A2"/>
<path d="M78.9897 25.3064C79.136 25.2932 79.2126 25.318 79.3027 25.3498C79.3909 25.3786 79.4642 25.4234 79.5368 25.4683C79.6772 25.5624 79.8001 25.6711 79.9037 25.7907C80.1211 26.0241 80.2808 26.2881 80.4325 26.5536C80.7162 27.0923 80.9427 27.6518 81.1218 28.2229C81.4905 29.3629 81.733 30.5307 81.9486 31.6999C82.3348 34.0468 82.62 36.3958 83.0372 38.7281C83.4675 41.0513 83.969 43.3835 84.93 45.5498C85.4172 46.6224 85.9836 47.675 86.7469 48.582C87.4993 49.4952 88.3965 50.2837 89.3947 50.9255C88.3888 50.2968 87.4793 49.5182 86.7119 48.6111C85.9333 47.7096 85.3509 46.6593 84.8468 45.587C83.853 43.4214 83.3195 41.0848 82.8581 38.7613C82.4103 36.4316 82.0934 34.0752 81.6794 31.7492C81.4504 30.5912 81.1944 29.4359 80.8191 28.3239C80.6367 27.7666 80.4084 27.2265 80.1342 26.7203C79.9887 26.4734 79.8355 26.2294 79.6451 26.031C79.5539 25.9274 79.4507 25.841 79.345 25.7714C79.2906 25.7393 79.2374 25.7068 79.1834 25.6911C79.1367 25.6678 79.0627 25.6674 79.0612 25.6638L78.9897 25.3064Z" fill="#AC54A2"/>
<path d="M61.679 33.2393C61.679 33.8297 61.2005 34.3086 60.6097 34.3086C60.0193 34.3086 59.54 33.8297 59.54 33.2393C59.54 32.6485 60.0193 32.1696 60.6097 32.1696C61.2005 32.1696 61.679 32.6485 61.679 33.2393Z" fill="#1D2345"/>
<path d="M56.6353 30.3203C57.9814 30.0884 59.3154 29.7861 60.6178 29.4013C61.2673 29.2014 61.8961 28.9513 62.5212 28.7109C63.1459 28.4655 63.756 28.1898 64.2619 27.7302L64.2911 27.7521C64.1926 27.8911 64.0919 28.041 63.9719 28.1701C63.8407 28.2842 63.7126 28.4097 63.5719 28.5151C63.4293 28.6161 63.2801 28.7091 63.1328 28.8061L62.667 29.0453C62.035 29.34 61.3629 29.5191 60.6951 29.6828C59.3581 30.0093 58.0029 30.2284 56.6396 30.3564L56.6353 30.3203Z" fill="#1D2345"/>
<path d="M70.5405 33.2393C70.5405 33.8297 71.0194 34.3086 71.6102 34.3086C72.2007 34.3086 72.6791 33.8297 72.6791 33.2393C72.6791 32.6485 72.2007 32.1696 71.6102 32.1696C71.0194 32.1696 70.5405 32.6485 70.5405 33.2393Z" fill="#1D2345"/>
<path d="M75.5805 30.3564C74.2169 30.2284 72.8613 30.0093 71.5247 29.6828C70.8569 29.5191 70.1851 29.34 69.5527 29.0453L69.0874 28.8061C68.94 28.7091 68.7905 28.6161 68.6479 28.5151C68.5075 28.4097 68.3791 28.2842 68.2478 28.1701C68.1278 28.041 68.0275 27.8911 67.9287 27.7521L67.9579 27.7302C68.4641 28.1898 69.0739 28.4655 69.6986 28.7109C70.3237 28.9513 70.9521 29.2014 71.602 29.4013C72.9047 29.7861 74.2388 30.0884 75.5845 30.3203L75.5805 30.3564Z" fill="#1D2345"/>
<path d="M66.1099 35.3039C66.1781 35.6806 66.1847 36.0661 66.1336 36.4505C66.1124 36.6438 66.0639 36.8353 65.9961 37.0271C65.9268 37.2156 65.8229 37.4108 65.6354 37.5643C65.5927 37.6055 65.5348 37.6321 65.476 37.6573L65.3932 37.6927L65.3458 37.7109C65.3057 37.7215 65.2984 37.7364 65.2795 37.743C65.2784 37.7488 65.2835 37.7353 65.2791 37.7273C65.2729 37.7299 65.309 37.8013 65.3674 37.8509C65.4246 37.9042 65.4932 37.9556 65.565 38.0056C65.863 38.1934 66.1981 38.3499 66.5683 38.4359C66.1865 38.5019 65.7882 38.4177 65.4264 38.2543C65.3353 38.2113 65.2452 38.162 65.1591 38.0935C65.0785 38.022 64.9746 37.9483 64.9359 37.7645C64.9199 37.6598 64.9695 37.5599 65.03 37.4954C65.0865 37.4465 65.1518 37.3998 65.2036 37.3841L65.2868 37.3502L65.3316 37.3269C65.359 37.3141 65.3881 37.3035 65.4122 37.2762C65.5205 37.197 65.611 37.0533 65.6777 36.8954C65.7521 36.7401 65.8043 36.5683 65.8557 36.3932C65.9549 36.0424 66.0271 35.6766 66.1099 35.3039Z" fill="#1D2345"/>
<path d="M53.927 25.5093C53.7549 24.9713 53.6674 24.405 53.6517 23.836C53.6371 23.2678 53.6914 22.6905 53.8559 22.1369C54.0226 21.5851 54.295 21.0636 54.6517 20.6051C55.0003 20.135 55.4734 19.7795 55.9544 19.464C56.9227 18.8239 58.1612 18.5792 59.3115 18.7948C59.8914 18.8921 60.4369 19.1212 60.9432 19.4013C61.4486 19.6894 61.9158 20.0234 62.3349 20.4443L62.8119 20.9228L62.1613 20.7175C61.5165 20.5136 60.8319 20.3772 60.1521 20.3061C59.4712 20.2299 58.779 20.2182 58.1054 20.3312C57.4307 20.4374 56.7797 20.6872 56.2287 21.0927C55.678 21.503 55.2768 22.092 55.012 22.7365C55.2181 22.0712 55.5959 21.4447 56.1411 20.9837C56.6845 20.5205 57.3669 20.2386 58.0627 20.1022C58.7604 19.9589 59.4767 19.9439 60.1817 19.999C60.8877 20.0657 61.5796 20.193 62.267 20.4005L62.0931 20.6741C61.31 19.9268 60.3035 19.3652 59.2444 19.143C58.1813 18.9333 57.0441 19.1376 56.1182 19.7317C55.6605 20.0329 55.198 20.3407 54.8563 20.7729C54.5054 21.1916 54.229 21.6752 54.0496 22.1982C53.7042 23.25 53.683 24.4101 53.927 25.5093Z" fill="#1D2345"/>
<path d="M49.543 116.161C49.543 116.161 45.7358 133.326 46.238 145.881C46.7406 158.436 49.543 169 49.543 169L71.6104 169L70.5957 140.859L84.9525 169L108.672 168.999C108.672 168.999 105.096 156.938 97.0519 136C93.2298 126.053 87.8355 114.141 87.8355 114.141C76.0152 117.484 63.1233 117.796 49.543 116.161Z" fill="white"/>
<path d="M64.0085 137.24C64.5786 137.503 65.1373 137.787 65.7004 138.063L67.3729 138.921L69.0305 139.807C69.5804 140.106 70.1381 140.392 70.6815 140.704L70.5024 140.709C71.7836 139.937 73.0513 139.143 74.3442 138.39C75.6308 137.627 76.923 136.873 78.2319 136.146C76.9952 136.99 75.7421 137.807 74.4839 138.616C73.2311 139.434 71.9528 140.211 70.6891 141.012L70.6038 141.065L70.5101 141.016C69.9557 140.724 69.4149 140.407 68.8671 140.104L67.2314 139.179L65.6103 138.227C65.0757 137.899 64.5366 137.579 64.0085 137.24Z" fill="#62385E"/>
<path d="M47.9617 122.894C48.2651 122.658 48.5638 122.422 48.8472 122.166C49.1371 121.92 49.4161 121.663 49.6878 121.398C50.229 120.868 50.744 120.313 51.2155 119.724C51.698 119.143 52.1255 118.52 52.5175 117.874C52.6134 117.712 52.7145 117.551 52.8071 117.385L53.0642 116.879C53.2575 116.548 53.3768 116.186 53.5536 115.842C53.3735 116.587 53.1269 117.326 52.763 118.01C52.6816 118.186 52.5923 118.358 52.488 118.521L52.1871 119.018C51.9646 119.335 51.7469 119.656 51.4985 119.953C51.008 120.552 50.4719 121.115 49.8749 121.606C49.2826 122.1 48.6506 122.55 47.9617 122.894Z" fill="#62385E"/>
<path d="M82.2434 114.87C82.514 115.229 82.7879 115.584 83.0819 115.921C83.366 116.266 83.6581 116.605 83.9684 116.924C84.5855 117.565 85.2175 118.192 85.9221 118.729C86.6205 119.269 87.3686 119.743 88.1724 120.107C88.9853 120.45 89.8511 120.649 90.753 120.705C90.3066 120.726 89.8482 120.768 89.3981 120.688C88.9408 120.649 88.509 120.494 88.0688 120.368C87.2074 120.052 86.4218 119.567 85.6975 119.016C84.9776 118.456 84.3364 117.805 83.7587 117.109C83.1851 116.41 82.6566 115.672 82.2434 114.87Z" fill="#62385E"/>
<path d="M68.1416 115.113C68.3393 117.263 68.5088 119.414 68.6821 121.564L69.1938 128.014C69.3488 130.165 69.5358 132.313 69.7306 134.46C69.8221 135.534 69.9334 136.606 70.0581 137.676C70.1296 138.209 70.1708 138.749 70.2671 139.278L70.398 140.076L70.5957 140.859L70.344 140.087L70.1723 139.295C70.0479 138.768 69.9801 138.232 69.8812 137.701C69.72 136.633 69.5774 135.562 69.452 134.489C69.1985 132.345 69.0143 130.193 68.8305 128.043C68.6737 125.89 68.518 123.738 68.4035 121.583C68.2882 119.428 68.189 117.271 68.1416 115.113Z" fill="#62385E"/>
<path d="M17.3267 81.5625C12.4047 87.1351 3.99201 79.6357 1.52627 77.2163C1.20402 76.9001 1.13877 76.4056 1.36459 76.015L1.47641 75.8217C1.73754 75.3702 2.30312 75.1984 2.7711 75.4278L4.96146 76.5033L0.798032 72.9271C0.471077 72.6459 0.363089 72.1863 0.530888 71.7896C0.76313 71.2403 1.42371 71.0193 1.93984 71.3173L5.26234 73.2385L1.24421 69.5477C0.875677 69.2097 0.817542 68.6491 1.10857 68.2417L1.40161 67.8318C1.72116 67.3854 2.34331 67.2833 2.7885 67.6053L7.45124 70.9781L4.53152 67.7366C4.08702 67.2432 4.24417 66.4609 4.84465 66.1772C5.44965 65.892 6.16056 65.95 6.7109 66.33L14.4525 71.6769L12.3989 68.5623C11.9043 67.8118 12.213 66.7957 13.0421 66.4478C13.6224 66.2042 14.2917 66.3661 14.6965 66.8475C16.6527 69.1725 20.1105 74.5365 19.5149 76.9431C18.7899 79.8739 17.3267 81.5625 17.3267 81.5625Z" fill="#F59FA5"/>
<path d="M6.47686 77.7019C6.4723 77.707 6.45903 77.722 6.44976 77.7081C6.44407 77.6983 6.44309 77.6877 6.44196 77.6775C6.44025 77.6571 6.44094 77.6366 6.44196 77.6166C6.44451 77.5765 6.44907 77.5367 6.45447 77.497C6.46687 77.4182 6.48325 77.3401 6.50108 77.2628C6.53638 77.1075 6.57657 76.9536 6.62044 76.8004C6.71333 76.4962 6.82019 76.1964 6.9427 75.9029C7.18489 75.3146 7.48304 74.7486 7.82994 74.2106C8.18253 73.6782 8.58527 73.1705 9.07178 72.7449C9.55115 72.3189 10.1338 71.9765 10.7621 71.8667C10.1773 72.114 9.69575 72.5115 9.2681 72.951C8.84428 73.3966 8.4713 73.8908 8.13479 74.4101C7.79318 74.9269 7.48946 75.4703 7.19985 76.0225C7.05779 76.3 6.91749 76.5794 6.78642 76.8635C6.71833 77.0046 6.65279 77.1468 6.59265 77.2916C6.56231 77.3638 6.53383 77.4368 6.50746 77.5105C6.49364 77.5469 6.48011 77.5838 6.46902 77.6213C6.46373 77.6399 6.45834 77.6589 6.45589 77.6775C6.45049 77.6957 6.45589 77.7223 6.47686 77.7019Z" fill="#1D2345"/>
<path d="M113.911 68.9738C118.833 74.5464 127.245 67.0474 129.711 64.6276C130.033 64.3114 130.099 63.8169 129.872 63.4263L129.76 63.233C129.5 62.7819 128.934 62.6097 128.466 62.8395L126.275 63.9143L130.439 60.338C130.766 60.0576 130.874 59.5977 130.706 59.2005C130.474 58.6516 129.813 58.4303 129.298 58.7286L125.975 60.6502L129.993 56.9594C130.361 56.621 130.42 56.0604 130.128 55.6534L129.835 55.2435C129.516 54.7964 128.894 54.695 128.449 55.0167L123.786 58.3898L126.706 55.1479C127.15 54.6545 126.993 53.8722 126.392 53.5885C125.788 53.3029 125.077 53.3613 124.527 53.7413L116.785 59.0885L118.838 55.9736C119.333 55.2231 119.024 54.2074 118.195 53.8595C117.615 53.6158 116.946 53.7774 116.54 54.2584C114.584 56.5838 111.127 61.9478 111.722 64.3541C112.447 67.2848 113.911 68.9738 113.911 68.9738Z" fill="#F59FA5"/>
<path d="M124.76 65.1131C124.781 65.1339 124.787 65.1069 124.781 65.089C124.779 65.07 124.773 65.0511 124.768 65.0325C124.757 64.9953 124.744 64.9581 124.73 64.922C124.703 64.8479 124.675 64.775 124.645 64.7028C124.584 64.5584 124.519 64.4158 124.451 64.2746C124.319 63.9905 124.179 63.7108 124.037 63.434C123.748 62.8815 123.444 62.3381 123.102 61.8216C122.766 61.3023 122.393 60.8078 121.969 60.3625C121.541 59.923 121.06 59.5255 120.475 59.2779C121.103 59.388 121.686 59.7297 122.165 60.1561C122.652 60.5817 123.054 61.0897 123.407 61.6222C123.754 62.1597 124.052 62.7257 124.294 63.314C124.417 63.6076 124.524 63.9074 124.617 64.2115C124.66 64.3647 124.701 64.5186 124.736 64.674C124.754 64.7513 124.77 64.8293 124.783 64.9081C124.788 64.9479 124.793 64.9876 124.795 65.0281C124.796 65.0478 124.797 65.0682 124.795 65.0886C124.794 65.0985 124.793 65.1094 124.787 65.1193C124.778 65.1335 124.765 65.1185 124.76 65.1131Z" fill="#1D2345"/>
<path d="M62.6769 15.2422C62.1094 14.4676 61.4165 13.7538 60.6619 13.1382C59.9048 12.5219 59.0591 12.008 58.1422 11.6692C57.2279 11.3275 56.2334 11.1885 55.2574 11.2979C54.2782 11.3979 53.3369 11.7582 52.4802 12.2476C53.3209 11.7327 54.2563 11.3395 55.2461 11.2071C56.2326 11.066 57.2549 11.1758 58.2024 11.4971C59.1528 11.8155 60.0361 12.3162 60.8308 12.9234C61.6266 13.5343 62.3469 14.2283 62.9734 15.0307L62.6769 15.2422Z" fill="#AC54A2"/>
<mask id="mask2_1_848" style="mask-type:luminance" maskUnits="userSpaceOnUse" x="13" y="55" width="107" height="62">
<path d="M39.5734 106.05C33.3192 107.82 13.4863 83.7647 13.4863 83.7647L18.8292 77.0421L34.7065 89.0514C34.7065 89.0514 40.4538 65.5333 42.8641 63.1937C47.7001 58.5004 56.6783 55.3475 66.9552 55.3475C75.7018 55.3475 83.5075 57.6316 88.6196 61.2054C92.508 63.9235 93.3931 67.6748 94.8377 71.1606C99.4727 82.3453 100.658 85.795 100.658 85.795L112.489 62.9866L119.812 67.0278C119.812 67.0278 110.385 102.698 98.8717 102.219C91.5379 101.913 83.7665 78.7311 83.7665 78.7311L80.8908 96.4071L88.1195 115.556L49.5429 116.155C49.5429 116.155 53.6954 102.401 53.7457 97.205C53.7968 92.0095 50.1538 79.2442 50.1538 79.2442C50.1538 79.2442 47.6709 103.759 39.5734 106.05Z" fill="white"/>
</mask>
<g mask="url(#mask2_1_848)">
<path d="M43.8667 59.7445C43.8667 59.7445 46.92 69.3117 50.3803 80.9143" stroke="#3631A9" stroke-width="0.364701" stroke-miterlimit="10"/>
<path d="M83.9668 79.2856C83.9668 79.2856 84.3738 64.8333 88.445 59.3372" stroke="#3631A9" stroke-width="0.364701" stroke-miterlimit="10"/>
</g>
<path d="M53.637 51.1398C57.1178 57.7095 69.2966 50.9494 72.2602 49.1737C72.6475 48.9417 72.8269 48.4767 72.6985 48.0434L72.6347 47.8294C72.487 47.3297 71.9775 47.0303 71.4688 47.1441L69.0873 47.6766L73.9721 45.1743C74.3557 44.9778 74.5683 44.5562 74.4983 44.1309C74.4009 43.543 73.8105 43.1729 73.239 43.3421L69.5592 44.4325L74.3295 41.7848C74.7667 41.5419 74.9549 41.0105 74.7671 40.5466L74.5778 40.0795C74.3718 39.5703 73.7908 39.326 73.2828 39.5346L67.96 41.7221L71.5574 39.2541C72.1052 38.8785 72.1354 38.0809 71.6179 37.6648C71.0971 37.2457 70.3918 37.136 69.7681 37.3767L60.9898 40.7629L63.7152 38.2151C64.372 37.6013 64.3093 36.5415 63.585 36.009C63.0777 35.6367 62.3895 35.637 61.8829 36.0101C59.4369 37.8132 52.6028 43.0726 52.6184 45.5511C52.637 48.5704 53.637 51.1398 53.637 51.1398Z" fill="#1D2345"/>
<path d="M69.2497 68.4031C68.7376 65.0621 66.928 60.3593 66.1023 58.3275C65.8605 57.7323 65.2569 57.3629 64.6096 57.4147C63.6854 57.4887 63.0559 58.375 63.2992 59.2593L64.3076 62.9304L58.4439 55.2892C58.0274 54.7458 57.3491 54.4635 56.6645 54.5478C55.9847 54.632 55.5788 55.3399 55.8556 55.9595L57.6726 60.0289L54.1897 55.2786C53.8574 54.8253 53.2148 54.7265 52.7579 55.058L52.3388 55.3618C51.9223 55.6641 51.7991 56.2254 52.0511 56.6711L54.7995 61.5242L52.163 58.6065C51.7535 58.1532 51.0347 58.158 50.6302 58.6164C50.3381 58.9479 50.2954 59.4275 50.5255 59.8038L53.4537 64.592L51.6532 62.8546C51.2688 62.4833 50.6594 62.4702 50.2582 62.8247L50.0864 62.9764C49.7389 63.2835 49.6437 63.7831 49.8578 64.1919C51.0285 66.4297 54.953 73.4076 59.5151 75.7938C64.5381 83.2574 86.0266 113.943 94.6526 106.036C103.233 98.1704 76.1243 74.2344 69.2497 68.4031Z" fill="#1D2345"/>
<path d="M85.5259 29.0144C85.7958 28.6654 86.1612 28.39 86.5624 28.1902C86.9632 27.987 87.4096 27.8634 87.8633 27.8353C88.3151 27.8167 88.7768 27.8536 89.1991 28.0122C89.4172 28.0676 89.6116 28.1858 89.8118 28.2773C90.004 28.3875 90.1838 28.5184 90.3582 28.6497C90.1437 28.5892 89.9464 28.5031 89.7415 28.4422C89.5325 28.3926 89.3348 28.3149 89.1255 28.2872C88.7163 28.1924 88.2983 28.1771 87.8884 28.1986C87.4756 28.2172 87.0689 28.3138 86.6736 28.4506C86.2786 28.5906 85.8961 28.7788 85.5259 29.0144Z" fill="#A6B1C3"/>
</svg>
