<svg width="20" height="12" viewBox="0 0 20 12" fill="none" xmlns="http://www.w3.org/2000/svg">
<path fill-rule="evenodd" clip-rule="evenodd" d="M4.86122 9.94707L0 9.57494V7.6882L4.14195 8.00527L4.59066 2.14355L9.40246 2.87509L10.53 6.50847L10.2618 10.0114C10.2359 10.3491 9.87235 10.3542 9.87235 10.3542L9.47917 10.3147C9.47917 10.3147 9.45127 8.02963 7.31759 7.86629C5.01511 7.69003 4.86122 9.94707 4.86122 9.94707ZM6.24336 5.81714L9.85468 6.45678L9.04674 3.7016L6.43684 3.28957L6.24336 5.81714Z" fill="black"/>
<path d="M3.33369 7.47222L0 7.21702V0.000244141L3.88293 0.297479L3.33369 7.47222Z" fill="black"/>
<path fill-rule="evenodd" clip-rule="evenodd" d="M20.0068 3.5083L15.4637 4.17789L11.6482 7.61373L12.0627 10.4261L13.4356 11.1816C13.2351 10.9308 13.0965 10.6242 13.0459 10.2812C12.8976 9.27516 13.5995 8.33071 14.6055 8.18241C15.6116 8.03414 16.556 8.73595 16.7043 9.74203C16.7549 10.085 16.7106 10.4186 16.591 10.7166L20.0068 10.2131V5.91455L18.6232 6.11848L18.3469 4.24353L20.0068 3.99889V3.5083ZM17.8896 4.31093L18.166 6.18588L14.4161 6.73856L16.0147 4.58727L17.8896 4.31093Z" fill="black"/>
<path fill-rule="evenodd" clip-rule="evenodd" d="M13.5032 10.2137C13.392 9.45918 13.915 8.72798 14.6924 8.61341C15.4698 8.49883 16.1815 9.04805 16.2927 9.80259C16.4039 10.5572 15.8809 11.2884 15.1035 11.403C14.349 11.5142 13.6144 10.9683 13.5032 10.2137ZM15.561 9.91045C15.5071 9.54459 15.1661 9.29117 14.8002 9.3451C14.4344 9.39901 14.1809 9.74006 14.2348 10.1059C14.2888 10.4718 14.6298 10.7252 14.9957 10.6713C15.3615 10.6173 15.6149 10.2763 15.561 9.91045Z" fill="black"/>
<path fill-rule="evenodd" clip-rule="evenodd" d="M7.00333 12.0021C5.97774 11.9236 5.20999 11.0286 5.28848 10.003C5.367 8.97737 6.26203 8.20962 7.28763 8.28811C8.31322 8.36663 9.08098 9.26169 9.00248 10.2873C8.92397 11.3129 8.0289 12.0806 7.00333 12.0021ZM8.02819 10.2126C7.99085 10.7005 7.56504 11.0658 7.07711 11.0285C6.58921 10.9911 6.22395 10.5653 6.2613 10.0774C6.29865 9.58947 6.72446 9.22421 7.21238 9.26156C7.70028 9.2989 8.06554 9.72472 8.02819 10.2126Z" fill="black"/>
<path d="M13.6975 1.30909L12.3421 3.0933C12.2117 3.26485 11.9397 3.20021 11.9005 2.98838L11.6625 1.70343L11.5735 3.53972C11.5625 3.7656 11.2798 3.86028 11.135 3.68655L10.3993 2.80363L10.9869 4.48269C11.013 4.55718 10.9737 4.6387 10.8993 4.66477C10.8248 4.69085 10.7432 4.65159 10.7172 4.5771L10.0607 2.70153C9.96945 2.4407 10.3087 2.24842 10.4856 2.46071L11.2927 3.42931L11.3928 1.366C11.407 1.07175 11.8309 1.04314 11.8846 1.33281L12.166 2.85256L13.5966 0.969467C13.7639 0.749214 14.1117 0.926586 14.0317 1.19139L13.5053 2.93252L14.726 2.36623C14.9691 2.25346 15.1936 2.55279 15.0172 2.75459L13.3839 4.62392C13.3319 4.68336 13.2417 4.68945 13.1822 4.6375C13.1228 4.58557 13.1167 4.49529 13.1687 4.43587L14.6852 2.70021L13.5493 3.22715C13.355 3.31734 13.1454 3.13534 13.2074 2.93027L13.6975 1.30909Z" fill="black"/>
</svg>
