<svg width="14" height="16" viewBox="0 0 14 16" fill="none" xmlns="http://www.w3.org/2000/svg">
<path d="M13.157 12.0722L11.1462 11.9614L12.5237 1.93932C12.587 1.4485 12.2545 1.00519 11.7637 0.926023L5.11396 0.00772589C4.62315 -0.0556049 4.17983 0.276882 4.10067 0.767696L2.5649 11.9456L0.395818 12.0722C0.17416 12.0881 0 12.2622 0 12.4839V14.6213C0 14.8588 0.189993 15.033 0.41165 15.033H6.06393L7.77386 13.228C7.80552 13.1964 7.80552 13.1489 7.78969 13.1172L6.96639 11.2964C6.95056 11.2648 6.95056 11.2173 6.98222 11.1856L8.518 9.76067C8.53383 9.74484 8.54966 9.71318 8.54966 9.68151L8.40717 8.41489C8.39133 8.30406 8.53383 8.25657 8.59716 8.35156L9.45213 9.74484C9.46796 9.77651 9.46796 9.824 9.45213 9.85567L8.4705 11.3598C8.45467 11.3914 8.45467 11.4231 8.4705 11.4548L9.57879 13.7189C9.59462 13.7505 9.59462 13.798 9.56295 13.8138L8.67632 15.0488H13.1253C13.3628 15.0488 13.537 14.8588 13.537 14.6371V12.4997C13.5528 12.2781 13.3786 12.0881 13.157 12.0722ZM6.34892 9.52318C6.33308 9.66568 6.20642 9.76067 6.06393 9.72901L4.9873 9.58651C4.84481 9.57068 4.74981 9.44402 4.78148 9.30153L4.92397 8.20907C4.9398 8.06657 5.06647 7.97158 5.20896 8.00324L6.30142 8.14574C6.44391 8.16157 6.53891 8.28823 6.50724 8.43073L6.34892 9.52318ZM6.76057 6.54663C6.74473 6.68913 6.61807 6.78412 6.47558 6.75246L5.38312 6.60996C5.24063 6.59413 5.14563 6.46747 5.1773 6.32498L5.31979 5.23252C5.33562 5.09002 5.46228 4.99503 5.60478 5.02669L6.69724 5.16919C6.83973 5.18502 6.93473 5.31168 6.90306 5.45418L6.76057 6.54663ZM7.17222 3.58592C7.15638 3.72841 7.02972 3.82341 6.88723 3.79174L5.79477 3.64925C5.65228 3.63342 5.55728 3.50675 5.58895 3.36426L5.73144 2.2718C5.74727 2.12931 5.87393 2.03431 6.01643 2.06598L7.10889 2.20847C7.25138 2.2243 7.34638 2.35097 7.31471 2.49346L7.17222 3.58592ZM9.99044 6.98995C9.97461 7.13244 9.84794 7.22744 9.70545 7.19578L8.62883 7.05328C8.48633 7.03745 8.39133 6.91079 8.423 6.76829L8.56549 5.67584C8.58133 5.53334 8.70799 5.43834 8.85048 5.47001L9.94294 5.6125C10.0854 5.62834 10.1804 5.755 10.1488 5.89749L9.99044 6.98995ZM10.4021 4.02923C10.3863 4.17173 10.2596 4.26672 10.1171 4.23506L9.02464 4.09256C8.88215 4.07673 8.78715 3.95007 8.81882 3.80758L8.96131 2.71512C8.97715 2.57262 9.10381 2.47763 9.2463 2.50929L10.3388 2.65179C10.4813 2.66762 10.5762 2.79428 10.5446 2.93678L10.4021 4.02923Z" fill="black"/>
</svg>
