<svg width="13" height="15" viewBox="0 0 13 15" fill="none" xmlns="http://www.w3.org/2000/svg">
<path d="M12.4481 8.51594C12.4481 12.3597 9.72441 14.9417 6.34237 15C7.55084 14.9633 8.51261 14.3433 8.51261 12.5597C8.51261 10.7195 6.22402 8.33426 6.22402 8.33426C6.22402 8.33426 3.93544 10.7195 3.93544 12.5597C3.93544 14.3433 4.89721 14.9633 6.10568 15C2.72363 14.9417 0 12.3597 0 8.51594C0 7.14746 0.770085 5.6873 1.7702 4.37048C1.46107 5.77034 2.54924 7.11216 3.57039 7.13912C3.77375 4.81886 3.77375 3.3337 6.22402 0C8.04256 3.75042 12.2997 4.13045 12.4481 8.51594Z" fill="black"/>
</svg>
