<svg width="16" height="15" viewBox="0 0 16 15" fill="none" xmlns="http://www.w3.org/2000/svg">
<path d="M13.0641 3.34389H11.0152V1.63916C11.0152 0.737624 10.2776 0 9.37602 0H6.19604C5.2945 0 4.55688 0.737624 4.55688 1.63916V3.3275H2.50792C1.13102 3.3275 0 4.45853 0 5.83542V12.3921C0 13.769 1.13102 14.9 2.50792 14.9H13.0641C14.441 14.9 15.5721 13.769 15.5721 12.3921V5.83542C15.5721 4.45853 14.441 3.34389 13.0641 3.34389ZM6.09769 1.63916C6.09769 1.58999 6.14686 1.54081 6.19604 1.54081H9.35963C9.4088 1.54081 9.45798 1.58999 9.45798 1.63916V3.3275H6.09769V1.63916ZM10.7201 10.1464H8.8187V12.0642H6.75336V10.1464H4.85192V8.09747H6.76975V6.17965H8.8187V8.09747H10.7365V10.1464H10.7201Z" fill="black"/>
</svg>
