<svg width="17" height="16" viewBox="0 0 17 16" fill="none" xmlns="http://www.w3.org/2000/svg">
<path d="M6.34699 3.36993C6.43609 3.72635 6.48956 4.13624 6.5252 4.6174C6.54302 4.88472 6.50738 5.24114 6.45392 5.63321C6.32917 6.66683 6.16878 7.94995 7.07765 8.34201C7.18458 8.39547 7.25586 8.5024 7.23804 8.62715L6.95291 10.9261C7.50536 11.033 7.86178 11.2468 8.11128 11.3894C8.30731 11.5142 8.30731 11.5142 8.4677 11.5142C8.61027 11.5142 8.62809 11.5142 8.82412 11.3894C9.05579 11.2468 9.41221 11.033 9.94685 10.9261L10.1785 8.98357C10.1963 8.87664 10.2498 8.80536 10.3567 8.76971C11.7111 8.2529 12.4953 6.79158 13.0299 5.81142L13.5645 4.81344C13.618 4.70651 13.6358 4.56394 13.5823 4.45702C13.5289 4.35009 13.4398 4.26098 13.315 4.22534C13.1546 4.17188 12.9764 4.24316 12.8695 4.36791L12.2279 5.2055C12.0497 5.43717 11.8359 5.63321 11.5864 5.7936C11.5329 5.82924 11.4795 5.84706 11.4082 5.82924C10.1607 5.70449 9.75081 6.93414 9.73299 6.98761C9.69735 7.13018 9.53696 7.21928 9.39439 7.16582C9.25182 7.13018 9.16272 6.96979 9.21618 6.82722C9.37657 6.27477 10.0181 5.29461 11.2121 5.27678L12.5487 1.40961C12.62 1.21358 12.5131 0.981907 12.2992 0.910623C12.1032 0.839338 11.8893 0.946265 11.8002 1.1423L10.7666 3.88674C10.7132 4.01149 10.5884 4.08277 10.4458 4.04713C10.3211 4.01149 10.232 3.88674 10.2498 3.74417L10.6419 0.447275C10.6775 0.233422 10.5171 0.0373902 10.3033 0.00174809C10.0894 -0.016073 9.89338 0.126496 9.87556 0.322527L9.34093 3.70853C9.32311 3.8511 9.19836 3.9402 9.07361 3.9402C8.93104 3.9402 8.82412 3.83328 8.8063 3.69071L8.57462 0.821517C8.57462 0.714591 8.52116 0.625486 8.43205 0.554201C8.36077 0.482917 8.25384 0.447275 8.1291 0.465096C7.91524 0.482917 7.75485 0.661128 7.77268 0.874981L7.86178 3.77981C7.86178 3.92238 7.77268 4.02931 7.63011 4.04713C7.48754 4.06495 7.36279 3.97585 7.32715 3.8511L6.75687 1.69475C6.70341 1.49872 6.48956 1.37397 6.27571 1.42743C6.16878 1.44525 6.07967 1.51654 6.02621 1.60564C5.97275 1.69475 5.95493 1.80168 5.97275 1.9086L6.34699 3.36993Z" fill="black"/>
<path d="M0.608636 13.2965C0.929415 13.2252 1.14327 13.0827 1.32148 12.9757C1.55315 12.8332 1.73136 12.7263 2.12343 12.7263C2.51549 12.7263 2.6937 12.8332 2.92537 12.9757C3.21051 13.154 3.56693 13.3678 4.22631 13.3678C4.88569 13.3678 5.24212 13.154 5.52725 12.9757C5.77675 12.8332 5.93714 12.7263 6.3292 12.7263C6.72126 12.7263 6.89947 12.8332 7.13115 12.9757C7.41629 13.154 7.77271 13.3678 8.43209 13.3678C9.09147 13.3678 9.44789 13.154 9.73302 12.9757C9.98252 12.8332 10.1429 12.7263 10.535 12.7263C10.927 12.7263 11.1052 12.8332 11.3369 12.9757C11.6221 13.154 11.9785 13.3678 12.6379 13.3678C13.2972 13.3678 13.6537 13.154 13.9388 12.9757C14.1705 12.8332 14.3487 12.7263 14.7407 12.7263C15.1328 12.7263 15.311 12.8332 15.5427 12.9757C15.7209 13.0827 15.9348 13.2074 16.2377 13.2965C16.5407 13.3678 16.8436 13.154 16.8436 12.8332C16.8436 12.6193 16.6832 12.4233 16.4694 12.3698C16.309 12.3342 16.1843 12.2451 16.0239 12.156C15.7387 11.9778 15.3823 11.7639 14.7229 11.7639C14.0635 11.7639 13.7071 11.9778 13.422 12.156C13.1903 12.2985 13.0121 12.4055 12.62 12.4055C12.228 12.4055 12.0498 12.2985 11.8181 12.156C11.533 11.9778 11.1765 11.7639 10.5172 11.7639C9.85777 11.7639 9.50135 11.9778 9.21621 12.156C8.98454 12.2985 8.80633 12.4055 8.41427 12.4055C8.0222 12.4055 7.84399 12.2985 7.61232 12.156C7.32718 11.9778 6.97076 11.7639 6.31138 11.7639C5.652 11.7639 5.29558 11.9778 5.01044 12.156C4.76095 12.2985 4.60056 12.4055 4.20849 12.4055C3.81643 12.4055 3.63822 12.2985 3.40654 12.156C3.12141 11.9778 2.76499 11.7639 2.10561 11.7639C1.44623 11.7639 1.0898 11.9778 0.804668 12.156C0.662099 12.2451 0.537352 12.3164 0.376962 12.352C0.198751 12.4055 0.0383616 12.548 0.00271947 12.7263C-0.0329227 13.0827 0.287857 13.3678 0.608636 13.2965Z" fill="black"/>
<path d="M16.5763 14.5077C16.4159 14.472 16.2912 14.3829 16.1308 14.2938C15.8456 14.1156 15.4892 13.9017 14.8298 13.9017C14.1705 13.9017 13.814 14.1156 13.5289 14.2938C13.2794 14.4364 13.119 14.5433 12.7091 14.5433C12.3171 14.5433 12.1389 14.4364 11.9072 14.2938C11.622 14.1156 11.2656 13.9017 10.6062 13.9017C9.94686 13.9017 9.59044 14.1156 9.3053 14.2938C9.05581 14.4364 8.8776 14.5433 8.48553 14.5433C8.09347 14.5433 7.91526 14.4364 7.68358 14.2938C7.39845 14.1156 7.04203 13.9017 6.38265 13.9017C5.72327 13.9017 5.36684 14.1156 5.08171 14.2938C4.83221 14.4364 4.67182 14.5433 4.27976 14.5433C3.8877 14.5433 3.70948 14.4364 3.47781 14.2938C3.19267 14.1156 2.83625 13.9017 2.17687 13.9017C1.51749 13.9017 1.16107 14.1156 0.875935 14.2938C0.733366 14.3829 0.608619 14.4542 0.448229 14.5077C0.270018 14.5611 0.109629 14.7037 0.0739867 14.8819C0.00270239 15.2383 0.323482 15.5235 0.662082 15.4343C0.982861 15.3631 1.19671 15.2205 1.37492 15.1136C1.6066 14.971 1.78481 14.8641 2.17687 14.8641C2.56894 14.8641 2.74715 14.971 2.97882 15.1136C3.26396 15.2918 3.62038 15.5056 4.27976 15.5056C4.93914 15.5056 5.29556 15.2918 5.5807 15.1136C5.83019 14.971 5.99058 14.8641 6.38265 14.8641C6.77471 14.8641 6.95292 14.971 7.18459 15.1136C7.46973 15.2918 7.82615 15.5056 8.48553 15.5056C9.14491 15.5056 9.50133 15.2918 9.78647 15.1136C10.036 14.971 10.1964 14.8641 10.5884 14.8641C10.9805 14.8641 11.1587 14.971 11.3904 15.1136C11.6755 15.2918 12.0319 15.5056 12.6913 15.5056C13.3507 15.5056 13.7071 15.2918 13.9922 15.1136C14.2239 14.971 14.4021 14.8641 14.7942 14.8641C15.1863 14.8641 15.3645 14.971 15.5961 15.1136C15.7743 15.2205 15.9882 15.3452 16.2912 15.4343C16.5941 15.5056 16.8971 15.2918 16.8971 14.971C16.9505 14.7393 16.7902 14.5611 16.5763 14.5077Z" fill="black"/>
</svg>
