<svg width="14" height="15" viewBox="0 0 14 15" fill="none" xmlns="http://www.w3.org/2000/svg">
<path d="M6.33803 8.0625C6.76365 7.56 7.40678 7.125 8.08928 6.67688C9.1224 6 10.2943 5.20875 10.8512 4.02563C11.7887 2.03437 13.2887 1.54875 13.3543 1.52813H13.3674C13.2908 0.963219 13.0525 0.432517 12.6812 0L4.00928 8.67188L5.21865 9.88313C5.3049 9.59813 5.56178 8.98125 6.33803 8.0625Z" fill="black"/>
<path d="M11.0201 4.10445C10.4426 5.33632 9.24256 6.1332 8.19256 6.83445C7.52131 7.28257 6.88943 7.70257 6.48068 8.18445C5.59943 9.22695 5.41006 9.87195 5.37256 10.0369L6.31006 10.9744L10.8663 6.43882C10.8663 6.43882 13.5551 4.0932 13.3882 1.7157C13.2044 1.78132 11.8676 2.31757 11.0201 4.10445Z" fill="black"/>
<path d="M5.41745 11.8876L3.10558 9.57568L0.480576 12.2007C0.328244 12.3526 0.207382 12.533 0.124916 12.7317C0.0424495 12.9304 0 13.1434 0 13.3585C0 13.5736 0.0424495 13.7866 0.124916 13.9853C0.207382 14.184 0.328244 14.3644 0.480576 14.5163C0.632622 14.6687 0.813233 14.7896 1.01207 14.8721C1.2109 14.9546 1.42406 14.997 1.63933 14.997C1.85459 14.997 2.06775 14.9546 2.26658 14.8721C2.46542 14.7896 2.64603 14.6687 2.79808 14.5163L5.41745 11.8876Z" fill="black"/>
<path d="M12.7206 10.875C14.8994 10.875 12.7206 7.17188 12.7206 7.17188C12.7206 7.17188 10.54 10.875 12.7206 10.875Z" fill="black"/>
<path d="M9.63801 11.2969C9.63801 11.2969 7.45926 15 9.63801 15C11.8168 15 9.63801 11.2969 9.63801 11.2969Z" fill="black"/>
<path d="M3.17166 8.10007L2.53394 8.73779L6.2542 12.4581L6.89192 11.8203L3.17166 8.10007Z" fill="black"/>
</svg>
